HIERARCHY
ROOT Hips
{
 OFFSET 0.000000 0.000000 0.000000
 CHANNELS 6 Xposition Yposition Zposition Yrotation Xrotation Zrotation
 JOINT Chest
 {
  OFFSET 0.000000 10.385163 0.011643
  CHANNELS 3 Yrotation Xrotation Zrotation
  JOINT Chest2
  {
   OFFSET 0.000000 11.579334 -0.021150
   CHANNELS 3 Yrotation Xrotation Zrotation
   JOINT Chest3
   {
    OFFSET 0.000000 10.463212 0.000000
    CHANNELS 3 Yrotation Xrotation Zrotation
    JOINT Chest4
    {
     OFFSET 0.000000 10.463212 0.000000
     CHANNELS 3 Yrotation Xrotation Zrotation
     JOINT Neck
     {
      OFFSET 0.000000 14.544862 0.000000
      CHANNELS 3 Yrotation Xrotation Zrotation
      JOINT Head
      {
       OFFSET 0.000000 9.730630 -0.050295
       CHANNELS 3 Yrotation Xrotation Zrotation
       End Site
       {
        OFFSET 0.000000 18.757589 -0.026270
       }
      }
     }
     JOINT RightCollar
     {
      OFFSET -2.985174 8.102313 0.000000
      CHANNELS 3 Yrotation Xrotation Zrotation
      JOINT RightShoulder
      {
       OFFSET -13.558590 0.000000 0.000000
       CHANNELS 3 Yrotation Xrotation Zrotation
       JOINT RightElbow
       {
        OFFSET -28.208579 0.000000 0.000000
        CHANNELS 3 Yrotation Xrotation Zrotation
        JOINT RightWrist
        {
         OFFSET -23.322907 0.000000 0.010349
         CHANNELS 3 Yrotation Xrotation Zrotation
         End Site
         {
          OFFSET -17.603338 0.000000 0.000000
         }
        }
       }
      }
     }
     JOINT LeftCollar
     {
      OFFSET 2.985174 8.102313 0.000000
      CHANNELS 3 Yrotation Xrotation Zrotation
      JOINT LeftShoulder
      {
       OFFSET 13.558590 0.000000 0.000000
       CHANNELS 3 Yrotation Xrotation Zrotation
       JOINT LeftElbow
       {
        OFFSET 28.208579 0.000000 0.000000
        CHANNELS 3 Yrotation Xrotation Zrotation
        JOINT LeftWrist
        {
         OFFSET 23.322907 0.000000 0.010349
         CHANNELS 3 Yrotation Xrotation Zrotation
         End Site
         {
          OFFSET 17.603338 0.000000 0.000000
         }
        }
       }
      }
     }
    }
   }
  }
 }
 JOINT RightHip
 {
  OFFSET -8.341224 -0.057053 -0.005822
  CHANNELS 3 Yrotation Xrotation Zrotation
  JOINT RightKnee
  {
   OFFSET 0.000000 -44.280013 0.005508
   CHANNELS 3 Yrotation Xrotation Zrotation
   JOINT RightAnkle
   {
    OFFSET 0.000000 -43.261728 0.009315
    CHANNELS 3 Yrotation Xrotation Zrotation
    JOINT RightToe
    {
     OFFSET 0.000000 -8.082955 18.257715
     CHANNELS 3 Yrotation Xrotation Zrotation
     End Site
     {
      OFFSET 0.000000 -1.634678 7.189621
     }
    }
   }
  }
 }
 JOINT LeftHip
 {
  OFFSET 8.341224 -0.057053 -0.005822
  CHANNELS 3 Yrotation Xrotation Zrotation
  JOINT LeftKnee
  {
   OFFSET 0.000000 -44.280013 0.005508
   CHANNELS 3 Yrotation Xrotation Zrotation
   JOINT LeftAnkle
   {
    OFFSET 0.000000 -43.261728 0.009315
    CHANNELS 3 Yrotation Xrotation Zrotation
    JOINT LeftToe
    {
     OFFSET 0.000000 -8.082955 18.257715
     CHANNELS 3 Yrotation Xrotation Zrotation
     End Site
     {
      OFFSET 0.000000 -1.634678 7.189621
     }
    }
   }
  }
 }
}
MOTION
Frames: 8
Frame Time: 0.016667
20.920140 97.216447 -28.279426 7.241826 -15.095668 -1.054812 -3.973062 9.951563 4.398372 -1.853571 4.385240 2.032733 -1.853567 4.385255 2.032740 -1.404122 3.282870 1.537154 -13.902632 13.399146 -0.131985 -26.195266 -10.070672 5.179448 1.318749 0.310265 0.884213 4.081533 -19.387369 74.086253 8.316095 18.138014 1.310182 3.201656 -1.605555 -1.053417 -0.738024 -1.361938 -14.597084 -9.748967 -11.882773 -77.219356 2.663799 25.787513 1.763631 1.318727 -3.366478 -2.505354 4.568072 14.442440 6.525584 -3.091304 -0.658496 1.006502 -4.308451 -2.406875 -2.365470 -0.000000 -0.000000 0.000000 17.081826 9.016522 11.181504 -5.512178 13.960330 0.287957 10.018534 -6.331452 -4.091831 0.000000 -0.000000 0.000000
21.137476 97.225420 -28.268858 6.106012 -15.068956 -1.107563 -4.139818 9.965575 4.407020 -1.927709 4.389795 2.040243 -1.927713 4.389799 2.040244 -1.459778 3.286004 1.543323 -14.334521 13.301690 -0.021766 -27.065549 -10.146208 5.561941 1.286208 0.306682 0.857394 3.872703 -19.476519 73.993824 8.120251 17.736063 0.973119 3.247918 -1.629885 -1.266816 -0.771488 -1.353515 -14.579761 -9.722625 -11.889673 -77.264921 2.967137 25.933825 2.014347 1.712236 -3.085304 -2.920385 4.840846 14.417996 6.494487 -2.715357 -0.701258 1.031293 -3.808483 -2.279344 -2.208431 -0.000000 -0.000000 0.000000 17.329031 9.240366 11.203132 -4.930504 13.930650 0.326415 10.401550 -6.513859 -4.044680 0.000000 0.000000 0.000000
21.358517 97.233931 -28.251910 4.931581 -15.056868 -1.164523 -4.308171 9.985796 4.418797 -2.002655 4.397067 2.049242 -2.002655 4.397067 2.049242 -1.516042 3.291176 1.550630 -14.721731 13.210836 0.086991 -27.850729 -10.214502 5.924399 1.248506 0.287075 0.833362 3.626105 -19.543345 73.889731 7.905240 17.327246 0.633372 3.295149 -1.649040 -1.472137 -0.806466 -1.357480 -14.563202 -9.705589 -11.890463 -77.307727 3.231953 26.090696 2.227488 2.056438 -2.835196 -3.263376 5.126316 14.399874 6.467562 -2.299870 -0.734224 1.056347 -3.318078 -2.157813 -2.041547 0.000000 -0.000000 -0.000000 17.646306 9.475632 11.245222 -4.368362 13.892194 0.364161 10.772682 -6.699985 -4.000906 0.000000 0.000000 0.000000
21.582877 97.242139 -28.225379 3.717576 -15.070058 -1.224112 -4.476054 10.015652 4.432163 -2.077490 4.408618 2.059035 -2.077478 4.408625 2.059038 -1.572231 3.299569 1.558551 -15.063085 13.129978 0.195882 -28.548529 -10.269954 6.268273 1.202194 0.248019 0.815742 3.334523 -19.586637 73.764328 7.674194 16.929190 0.304844 3.341955 -1.656901 -1.659461 -0.844403 -1.379726 -14.548961 -9.702939 -11.877695 -77.341962 3.455652 26.288817 2.400511 2.350321 -2.631138 -3.524276 5.424831 14.404294 6.443260 -1.821694 -0.764292 1.086259 -2.854250 -2.048127 -1.870524 -0.000000 0.000000 -0.000000 18.077782 9.727473 11.323497 -3.852972 13.840804 0.396374 11.113333 -6.889011 -3.962434 0.000000 0.000000 0.000000
21.810942 97.249886 -28.192467 2.464708 -15.098186 -1.286766 -4.645509 10.052053 4.447953 -2.153147 4.423013 2.069999 -2.153138 4.423016 2.069999 -1.629074 3.310070 1.567359 -15.359895 13.055888 0.302790 -29.161022 -10.319404 6.590478 1.150922 0.193141 0.802287 3.006352 -19.610257 73.623988 7.423863 16.524745 -0.028104 3.389681 -1.659855 -1.838898 -0.883706 -1.414453 -14.534296 -9.709492 -11.858654 -77.374093 3.639031 26.498439 2.537324 2.602546 -2.461047 -3.712553 5.736189 14.414702 6.422746 -1.303924 -0.785067 1.116447 -2.400025 -1.944473 -1.689839 -0.000000 0.000000 -0.000000 18.580247 9.989904 11.421970 -3.357171 13.780969 0.427964 11.442100 -7.081714 -3.927194 0.000000 -0.000000 -0.000000
22.042260 97.257047 -28.157408 1.180893 -15.122945 -1.352440 -4.813404 10.084760 4.465758 -2.228135 4.435748 2.081820 -2.228135 4.435748 2.081820 -1.685425 3.319324 1.576809 -15.623388 12.993624 0.404835 -29.706923 -10.353193 6.889041 1.099013 0.127104 0.788490 2.648847 -19.610391 73.478745 7.159003 16.125377 -0.364001 3.431625 -1.665356 -2.004866 -0.915334 -1.448794 -14.518972 -9.701301 -11.845933 -77.402117 3.758978 26.681126 2.623240 2.783956 -2.327704 -3.824993 6.063846 14.397186 6.408397 -0.786497 -0.776029 1.136530 -1.942733 -1.834445 -1.481405 0.000000 -0.000000 0.000000 19.095191 10.255074 11.515047 -2.862338 13.708182 0.465066 11.795406 -7.276175 -3.889769 0.000000 -0.000000 -0.000000
22.276636 97.263628 -28.122525 -0.134847 -15.137203 -1.422503 -4.978718 10.110014 4.486460 -2.301970 4.445159 2.094824 -2.301971 4.445161 2.094825 -1.740900 3.326090 1.587131 -15.854168 12.945961 0.499785 -30.185898 -10.367296 7.159058 1.048580 0.048724 0.774911 2.263471 -19.584628 73.327731 6.879121 15.735554 -0.705807 3.462830 -1.675495 -2.155670 -0.937639 -1.479607 -14.503256 -9.661728 -11.840683 -77.426471 3.798620 26.833957 2.653154 2.880937 -2.229040 -3.841970 6.384825 14.338003 6.395814 -0.275182 -0.725784 1.143048 -1.463688 -1.707193 -1.232176 -0.000000 -0.000000 0.000000 19.616916 10.516956 11.597623 -2.359694 13.619961 0.512574 12.172702 -7.472076 -3.849842 0.000000 -0.000000 0.000000
22.514265 97.269623 -28.085494 -1.481448 -15.148446 -1.495981 -5.142492 10.131884 4.509598 -2.375146 4.453035 2.108852 -2.375145 4.453036 2.108851 -1.795879 3.331695 1.598206 -16.051958 12.909913 0.588811 -30.598441 -10.367285 7.402930 0.997708 -0.040888 0.762067 1.849876 -19.536821 73.167737 6.585430 15.350990 -1.052248 3.486905 -1.687615 -2.293964 -0.952292 -1.509889 -14.486885 -9.607358 -11.841161 -77.446381 3.771845 26.960054 2.635958 2.916124 -2.167882 -3.777108 6.721783 14.250775 6.390830 0.236152 -0.646013 1.139158 -0.981071 -1.573809 -0.955541 -0.000000 0.000000 -0.000000 20.151020 10.781016 11.674009 -1.858091 13.518796 0.565668 12.574596 -7.669629 -3.807839 0.000000 0.000000 0.000000
